<svg width="165" height="164" viewBox="0 0 165 164" fill="none" xmlns="http://www.w3.org/2000/svg">
<g clip-path="url(#clip0_97_187)">
<path d="M156.999 -0.0986328H8.25721C4.04367 -0.0986328 0.62793 3.31711 0.62793 7.53065V156.272C0.62793 160.486 4.04367 163.901 8.25721 163.901H156.999C161.212 163.901 164.628 160.486 164.628 156.272V7.53065C164.628 3.31711 161.212 -0.0986328 156.999 -0.0986328Z" fill="url(#paint0_radial_97_187)"/>
<path d="M44.1043 141.345H41.3392V144.222H39.4958V134.451C41.0309 134.451 42.5659 134.438 44.101 134.438C48.8734 134.438 48.8898 141.348 44.101 141.348L44.1043 141.345ZM41.3392 139.656H44.1043C46.4626 139.656 46.4495 136.196 44.1043 136.196H41.3392V139.656Z" fill="#F08825"/>
<path d="M58.874 144.218H51.5596V134.447H58.874V136.235H53.3865V138.482H58.6772V140.197H53.3865V142.401H58.874V144.215V144.218Z" fill="#F08825"/>
<path d="M62.9644 144.218V134.447H64.7946V144.218H62.9644Z" fill="#F08825"/>
<path d="M75.5988 134.434H77.4422V144.218H76.2975V144.231L71.161 137.629V144.218H69.3176V134.447H70.81L75.5988 140.505V134.434Z" fill="#F08825"/>
<path d="M84.3105 136.123H81.2109V134.447H89.2502V136.123H86.1506V144.218H84.3073V136.123H84.3105Z" fill="#F08825"/>
<path d="M101.885 134.46V140.059C101.885 142.949 100.11 144.428 97.6567 144.428C95.2032 144.428 93.314 143.005 93.314 140.059V134.46H95.1442V140.059C95.1442 141.817 96.1479 142.756 97.6698 142.756C99.1917 142.756 100.058 141.735 100.058 140.059V134.46H101.885Z" fill="#F08825"/>
<path d="M115.008 144.218H112.817L109.97 140.951H108.195V144.218H106.352V134.434C107.9 134.434 109.452 134.447 111 134.447C113.302 134.46 114.516 135.995 114.516 137.685C114.516 139.026 113.903 140.381 112.046 140.755L115.005 144.09V144.215L115.008 144.218ZM108.195 136.163V139.288H111C112.174 139.288 112.676 138.508 112.676 137.727C112.676 136.947 112.161 136.163 111 136.163H108.195Z" fill="#F08825"/>
<path d="M125.704 144.218H118.39V134.447H125.704V136.235H120.217V138.482H125.507V140.197H120.217V142.401H125.704V144.215V144.218Z" fill="#F08825"/>
<path d="M81.339 56.3501L73.9656 63.7235L103.568 93.3288V78.5787L81.339 56.3501Z" fill="url(#paint1_linear_97_187)"/>
<path d="M72.1189 50.8202V36.9557L61.6885 47.3861V76.0008L73.9655 63.7237L81.339 56.3503L103.568 34.1217V19.3716L72.1189 50.8202Z" fill="url(#paint2_linear_97_187)"/>
<path d="M75.4219 80.3105L82.2738 87.1625L84.7535 84.1908L75.4219 80.3105Z" fill="#F08825"/>
<path d="M82.3591 24.1572L75.5039 31.0124L78.4756 33.4888L82.3591 24.1572Z" fill="white"/>
<mask id="mask0_97_187" style="mask-type:luminance" maskUnits="userSpaceOnUse" x="61" y="19" width="43" height="58">
<path d="M72.1189 50.8202V36.9557L61.6885 47.3861V76.0008L73.9655 63.7237L81.339 56.3503L103.568 34.1217V19.3716L72.1189 50.8202Z" fill="white"/>
</mask>
<g mask="url(#mask0_97_187)">
<path d="M72.1188 36.9556L61.6228 61.5129C61.6228 61.5129 70.013 52.9357 74.3492 48.5996C78.6854 44.2634 72.1188 36.9556 72.1188 36.9556Z" fill="url(#paint3_linear_97_187)"/>
</g>
<path d="M53.9246 106.833H50.1985V125.293H68.163V121.567H53.9246V106.833Z" fill="white"/>
<path d="M89.8503 110.431V106.705H71.8857V125.293H89.8503V121.567H75.6118V117.677H86.1439V113.951H75.6118V110.431H89.8503Z" fill="white"/>
<path d="M41.208 125.31H46.4757L36.5865 115.42L33.9526 118.054L41.208 125.31Z" fill="white"/>
<path d="M39.9288 106.813L27.4943 119.245V106.813H23.7715V125.309H26.6972L33.9526 118.054L36.5864 115.42L45.1964 106.813H39.9288Z" fill="white"/>
<path d="M118.403 125.309L107.146 106.813H104.925L93.5764 125.309H97.9454L100.12 121.764H111.882L114.04 125.309L114.053 125.329H118.413L118.399 125.309H118.403ZM102.406 118.038L106.027 112.14L109.619 118.038H102.409H102.406Z" fill="white"/>
<path d="M137.761 119.445L125.127 106.813H122.139V125.329H125.865V112.816L138.378 125.329H141.487V106.813H137.761V119.445Z" fill="white"/>
</g>
<defs>
<radialGradient id="paint0_radial_97_187" cx="0" cy="0" r="1" gradientUnits="userSpaceOnUse" gradientTransform="translate(89.447 -49.0067) scale(116.988)">
<stop stop-color="#606060"/>
<stop offset="1" stop-color="#141414"/>
</radialGradient>
<linearGradient id="paint1_linear_97_187" x1="82.0639" y1="57.4128" x2="96.9485" y2="87.9267" gradientUnits="userSpaceOnUse">
<stop offset="0.14" stop-color="#1C1E1F" stop-opacity="0"/>
<stop offset="1" stop-color="white"/>
</linearGradient>
<linearGradient id="paint2_linear_97_187" x1="56.693" y1="78.5821" x2="82.1458" y2="41.4591" gradientUnits="userSpaceOnUse">
<stop stop-color="#ED7218"/>
<stop offset="0.91" stop-color="#FABC43"/>
</linearGradient>
<linearGradient id="paint3_linear_97_187" x1="78.3442" y1="41.1605" x2="66.9856" y2="49.1539" gradientUnits="userSpaceOnUse">
<stop stop-color="#F08825"/>
<stop offset="1" stop-color="#ED7218"/>
</linearGradient>
<clipPath id="clip0_97_187">
<rect width="164" height="164" fill="white" transform="translate(0.5)"/>
</clipPath>
</defs>
</svg>
