<svg width="89" height="100" viewBox="0 0 89 100" fill="none" xmlns="http://www.w3.org/2000/svg">
<circle cx="54.5776" cy="49.648" r="26.4085" fill="#606060"/>
<path d="M72.9959 15.791V22.9416H12.2158V15.791" stroke="#F08825" stroke-width="2" stroke-linecap="round" stroke-linejoin="round"/>
<path d="M7.74654 14.897L77.4648 14.897V7.74638L7.74654 7.74638V14.897Z" stroke="#F08825" stroke-width="2" stroke-linecap="round" stroke-linejoin="round"/>
<path d="M12.2158 84.6154V77.4648H72.9959V84.6154" stroke="#F08825" stroke-width="2" stroke-linecap="round" stroke-linejoin="round"/>
<path d="M77.4649 85.5093H7.74658V92.6599H77.4649V85.5093Z" stroke="#F08825" stroke-width="2" stroke-linecap="round" stroke-linejoin="round"/>
<path d="M23.9609 77.4645C27.3217 68.3832 34.4008 62.1265 42.6061 62.1265C50.8114 62.1265 57.8905 68.3832 61.2513 77.4645" stroke="#F08825" stroke-width="2" stroke-linecap="round" stroke-linejoin="round"/>
<path d="M16.5591 23.1914C18.0071 35.4547 24.389 45.5728 32.9339 50.0061C24.389 54.4395 18.0071 64.5576 16.5591 76.8209" stroke="#F08825" stroke-width="2" stroke-miterlimit="10"/>
<path d="M68.652 76.8209C67.204 64.5576 60.8221 54.4395 52.2771 50.0061C60.8221 45.5728 67.204 35.4547 68.652 23.1914" stroke="#F08825" stroke-width="2" stroke-miterlimit="10"/>
<path d="M60.0354 32.5233C56.3529 40.0314 49.9174 45.019 42.6059 45.019C34.7938 45.019 28.0008 39.3521 24.4791 30.9859C24.4076 30.825 24.2825 30.539 24.2825 30.5211C40.6216 25.4442 41.0327 37.6717 60.0354 32.5233Z" stroke="#F08825" stroke-width="2" stroke-linecap="round" stroke-linejoin="round"/>
<path d="M42.2302 45.0371V52.1877" stroke="#F08825" stroke-width="2" stroke-linecap="round" stroke-linejoin="round"/>
<path d="M42.2302 56.46V57.461" stroke="#F08825" stroke-width="2" stroke-linecap="round" stroke-linejoin="round"/>
</svg>
