<svg width="90" height="100" viewBox="0 0 90 100" fill="none" xmlns="http://www.w3.org/2000/svg">
<circle cx="62.6199" cy="48.9436" r="26.4085" fill="#606060"/>
<rect x="59.7307" y="9.15503" width="22.5352" height="81.6901" stroke="#F08825" stroke-width="2"/>
<path d="M60.4985 75.5327H81.6253" stroke="#F08825" stroke-width="2"/>
<path d="M60.4985 62.8567H81.6253" stroke="#F08825" stroke-width="2"/>
<path d="M60.4985 49.4763H81.6253" stroke="#F08825" stroke-width="2"/>
<path d="M60.4985 36.8003H81.6253" stroke="#F08825" stroke-width="2"/>
<path d="M60.4985 23.4199H81.6253" stroke="#F08825" stroke-width="2"/>
<ellipse cx="70.9985" cy="82.4666" rx="3.07298" ry="3.14193" stroke="#F08825" stroke-width="2"/>
<path d="M60.8592 90.845L1 90.845L0.999999 68.3098L37.7009 68.3098" stroke="#F08825" stroke-width="2"/>
<path d="M54.5754 90.1409L54.5754 85.2113" stroke="#F08825" stroke-width="2"/>
<path d="M41.1953 90.1409L41.1953 71.831" stroke="#F08825" stroke-width="2"/>
<path d="M28.5193 90.1409L28.5193 69.0141" stroke="#F08825" stroke-width="2"/>
<path d="M15.1389 90.1409L15.1389 69.0141" stroke="#F08825" stroke-width="2"/>
<path d="M59.4422 89.7888L7.41919 37.7659L23.354 21.8311L59.4422 57.9192" stroke="#F08825" stroke-width="2"/>
<path d="M45.8005 75.1514L59.3323 61.6196" stroke="#F08825" stroke-width="2"/>
<path d="M36.3396 65.6902L51.2785 50.7513" stroke="#F08825" stroke-width="2"/>
<path d="M55.3069 84.6572L59.5322 80.4319" stroke="#F08825" stroke-width="2"/>
<path d="M27.3762 56.7271L42.3151 41.7882" stroke="#F08825" stroke-width="2"/>
<path d="M17.9148 47.2656L32.8537 32.3267" stroke="#F08825" stroke-width="2"/>
</svg>
