<svg width="89" height="100" viewBox="0 0 89 100" fill="none" xmlns="http://www.w3.org/2000/svg">
<circle cx="61.6199" cy="53.1689" r="26.4085" fill="#606060"/>
<path d="M50.6194 60.3306H43.3359" stroke="#F08825" stroke-width="2" stroke-linecap="round" stroke-linejoin="round"/>
<path d="M63.08 60.3306H56.7866" stroke="#F08825" stroke-width="2" stroke-linecap="round" stroke-linejoin="round"/>
<path d="M25.5825 60.3306H18.9363" stroke="#F08825" stroke-width="2" stroke-linecap="round" stroke-linejoin="round"/>
<path d="M38.9653 60.3306H31.7388" stroke="#F08825" stroke-width="2" stroke-linecap="round" stroke-linejoin="round"/>
<path d="M60.1447 88.0552L60.0992 88.0667L50.6193 60.3308L43.8252 40.431C45.9306 39.629 47.6035 37.9679 48.4343 35.8713L56.7875 60.3308L63.7295 80.6544C64.7652 83.6903 63.1605 87.0013 60.1447 88.0552Z" stroke="#F08825" stroke-width="2" stroke-linecap="round" stroke-linejoin="round"/>
<path d="M60.1328 88.0325V94.7688" stroke="#F08825" stroke-width="2" stroke-linecap="round" stroke-linejoin="round"/>
<path d="M38.4988 40.5453L31.7389 60.3305L22.259 88.0664H22.2135V88.055C19.1977 87.0125 17.5816 83.7015 18.6286 80.6541L25.5707 60.3305L33.776 36.3179C34.6978 38.2998 36.4048 39.8464 38.4988 40.5453Z" stroke="#F08825" stroke-width="2" stroke-linecap="round" stroke-linejoin="round"/>
<path d="M38.3967 25.3201V19.0305C38.3967 17.9192 39.2958 17.0142 40.3997 17.0142H41.606C42.7099 17.0142 43.609 17.9192 43.609 19.0305V25.3201" stroke="#F08825" stroke-width="2" stroke-linecap="round" stroke-linejoin="round"/>
<path d="M38.4988 40.5457C39.284 40.8092 40.1262 40.9467 41.0025 40.9467C41.9926 40.9467 42.9371 40.7634 43.8134 40.4312" stroke="#F08825" stroke-width="2" stroke-linecap="round" stroke-linejoin="round"/>
<path d="M48.4226 35.8712C48.7868 34.9547 48.9802 33.958 48.9802 32.9155C48.9802 29.3983 46.7383 26.4082 43.6087 25.3199C42.7893 25.0335 41.913 24.8845 41.0026 24.8845C40.0921 24.8845 39.2158 25.0335 38.3965 25.3199C35.2668 26.4082 33.0249 29.3983 33.0249 32.9155C33.0249 34.1298 33.298 35.2869 33.776 36.318" stroke="#F08825" stroke-width="2" stroke-linecap="round" stroke-linejoin="round"/>
<path d="M22.2246 88.0325V94.7688" stroke="#F08825" stroke-width="2" stroke-linecap="round" stroke-linejoin="round"/>
<path d="M43.3355 56.3554C43.3355 55.1406 42.3598 54.1558 41.1562 54.1558C39.9525 54.1558 38.9768 55.1406 38.9768 56.3554V64.2947C38.9768 65.5095 39.9525 66.4943 41.1562 66.4943C42.3598 66.4943 43.3355 65.5095 43.3355 64.2947V56.3554Z" stroke="#F08825" stroke-width="2" stroke-linecap="round" stroke-linejoin="round"/>
<rect x="24.0745" y="1.23612" width="61.4611" height="83.1875" transform="rotate(15.9346 24.0745 1.23612)" stroke="#F08825" stroke-width="2"/>
</svg>
