<svg width="30" height="30" viewBox="0 0 30 30" fill="none" xmlns="http://www.w3.org/2000/svg">
  <path d="M29.9979 15.0005C29.9979 22.5765 24.3824 28.8396 17.0873 29.856C16.4052 29.9506 15.7073 30 14.9989 30C14.1813 30 13.3783 29.9348 12.5963 29.8087C5.45474 28.6589 0 22.4661 0 15.0005C0 6.71618 6.71595 0 15 0C23.2841 0 30 6.71618 30 15.0005H29.9979Z" fill="currentColor"/>
  <path d="M17.0875 12.0449V15.3126H21.1297L20.4897 19.7144H17.0875V29.8559C16.4054 29.9505 15.7076 29.9999 14.9992 29.9999C14.1815 29.9999 13.3785 29.9348 12.5966 29.8086V19.7144H8.86865V15.3126H12.5966V11.3144C12.5966 8.83397 14.6072 6.82227 17.0886 6.82227V6.82437C17.096 6.82437 17.1023 6.82227 17.1096 6.82227H21.1308V10.6292H18.5033C17.7224 10.6292 17.0886 11.2629 17.0886 12.0439L17.0875 12.0449Z" fill="#121218" />
</svg>
