<svg width="30" height="30" viewBox="0 0 30 30" fill="none" xmlns="http://www.w3.org/2000/svg">
<path d="M15.0342 0H14.9658C6.70044 0 0 6.70044 0 14.9658V15.0342C0 23.2996 6.70044 30 14.9658 30H15.0342C23.2996 30 30 23.2996 30 15.0342V14.9658C30 6.70044 23.2996 0 15.0342 0Z" fill="white"/>
<path d="M19.6417 6.10339H10.3589C7.79433 6.10339 5.70801 8.18972 5.70801 10.7543V19.2467C5.70801 21.8113 7.79433 23.8976 10.3589 23.8976H19.6417C22.2063 23.8976 24.2926 21.8113 24.2926 19.2467V10.7543C24.2926 8.18972 22.2063 6.10339 19.6417 6.10339ZM7.34869 10.7543C7.34869 9.09467 8.69928 7.74407 10.3589 7.74407H19.6417C21.3013 7.74407 22.6519 9.09467 22.6519 10.7543V19.2467C22.6519 20.9063 21.3013 22.2569 19.6417 22.2569H10.3589C8.69928 22.2569 7.34869 20.9063 7.34869 19.2467V10.7543Z" fill="currentColor"/>
<path d="M15.0004 19.3255C17.3852 19.3255 19.3265 17.3853 19.3265 14.9994C19.3265 12.6136 17.3863 10.6733 15.0004 10.6733C12.6146 10.6733 10.6743 12.6136 10.6743 14.9994C10.6743 17.3853 12.6146 19.3255 15.0004 19.3255ZM15.0004 12.3151C16.4813 12.3151 17.6858 13.5196 17.6858 15.0005C17.6858 16.4814 16.4813 17.6859 15.0004 17.6859C13.5195 17.6859 12.315 16.4814 12.315 15.0005C12.315 13.5196 13.5195 12.3151 15.0004 12.3151Z" fill="currentColor"/>
<path d="M19.7263 11.3724C20.3683 11.3724 20.8916 10.85 20.8916 10.2068C20.8916 9.56351 20.3693 9.04114 19.7263 9.04114C19.0832 9.04114 18.561 9.56351 18.561 10.2068C18.561 10.85 19.0832 11.3724 19.7263 11.3724Z" fill="currentColor"/>
</svg>
