<svg width="30" height="30" viewBox="0 0 30 30" fill="none" xmlns="http://www.w3.org/2000/svg">
<path d="M15.0342 0H14.9658C6.70045 0 0 6.70044 0 14.9658V15.0342C0 23.2996 6.70045 30 14.9658 30H15.0342C23.2996 30 30 23.2996 30 15.0342V14.9658C30 6.70044 23.2996 0 15.0342 0Z" fill="white"/>
<path d="M7.15423 9.97122C6.75903 9.6044 6.5625 9.15036 6.5625 8.61012C6.5625 8.06988 6.76008 7.59586 7.15423 7.22799C7.54942 6.86118 8.05813 6.67725 8.6814 6.67725C9.30467 6.67725 9.79341 6.86118 10.1876 7.22799C10.5827 7.59481 10.7793 8.05622 10.7793 8.61012C10.7793 9.16402 10.5817 9.6044 10.1876 9.97122C9.79236 10.338 9.291 10.522 8.6814 10.522C8.07179 10.522 7.54942 10.338 7.15423 9.97122ZM10.4472 12.0754V23.3216H6.89357V12.0754H10.4472Z" fill="currentColor"/>
<path d="M22.2766 13.1863C23.0512 14.0271 23.438 15.1812 23.438 16.6506V23.1229H20.0631V17.1067C20.0631 16.3657 19.8708 15.7897 19.4871 15.3798C19.1035 14.9699 18.5864 14.7639 17.939 14.7639C17.2915 14.7639 16.7744 14.9689 16.3907 15.3798C16.0071 15.7897 15.8148 16.3657 15.8148 17.1067V23.1229H12.4199V12.0438H15.8148V13.5132C16.1585 13.0234 16.622 12.6366 17.2043 12.3518C17.7866 12.0669 18.4414 11.925 19.1697 11.925C20.4667 11.925 21.503 12.3455 22.2766 13.1853V13.1863Z" fill="currentColor"/>
</svg>
