<svg width="30" height="30" viewBox="0 0 30 30" fill="none" xmlns="http://www.w3.org/2000/svg">
<path d="M15.0342 0H14.9658C6.70044 0 0 6.70044 0 14.9658V15.0342C0 23.2996 6.70044 30 14.9658 30H15.0342C23.2996 30 30 23.2996 30 15.0342V14.9658C30 6.70044 23.2996 0 15.0342 0Z" fill="currentColor"/>
<path d="M22.2517 10.853V13.6856C21.7567 13.6373 21.1134 13.5248 20.4019 13.2641C19.4727 12.9236 18.7811 12.458 18.3281 12.0975V17.8225L18.3166 17.8047C18.3239 17.9182 18.3281 18.0338 18.3281 18.1505C18.3281 20.9935 16.0148 23.3079 13.1707 23.3079C10.3265 23.3079 8.01318 20.9935 8.01318 18.1505C8.01318 15.3074 10.3265 12.9919 13.1707 12.9919C13.4492 12.9919 13.7225 13.014 13.9894 13.0571V15.8487C13.733 15.7572 13.4576 15.7078 13.1707 15.7078C11.8243 15.7078 10.728 16.803 10.728 18.1505C10.728 19.4979 11.8243 20.5931 13.1707 20.5931C14.5171 20.5931 15.6133 19.4968 15.6133 18.1505C15.6133 18.1 15.6122 18.0496 15.6091 17.9991V6.87378H18.4396C18.4501 7.11342 18.4595 7.35516 18.47 7.5948C18.489 8.06672 18.6571 8.51972 18.9504 8.89074C19.2941 9.32692 19.8017 9.83353 20.5143 10.2382C21.1817 10.6155 21.8082 10.7784 22.2517 10.8551V10.853Z" fill="#121218"/>
</svg>
