<svg width="30" height="30" viewBox="0 0 30 30" fill="none" xmlns="http://www.w3.org/2000/svg">
<path d="M29.9979 15.0005C29.9979 22.5765 24.3824 28.8396 17.0873 29.856C16.4052 29.9506 15.7073 30 14.9989 30C14.1813 30 13.3783 29.9348 12.5963 29.8087C5.45474 28.6589 0 22.4661 0 15.0005C0 6.71618 6.71595 0 15 0C23.2841 0 30 6.71618 30 15.0005H29.9979Z" fill="white"/>
<path d="M6.08411 6.61633L13.0018 15.8655L6.04102 23.3858H7.60807L13.7029 16.802L18.6269 23.3858H23.9586L16.652 13.6163L23.1315 6.61633H21.5644L15.952 12.6798L11.4169 6.61633H6.08515H6.08411ZM8.38791 7.77038H10.8368L21.6527 22.2317H19.2039L8.38791 7.77038Z" fill="currentColor"/>
</svg>
