<svg width="30" height="30" viewBox="0 0 30 30" fill="none" xmlns="http://www.w3.org/2000/svg">
<path d="M30 15C30 6.71573 23.2843 0 15 0C6.71574 0 0 6.71573 0 15C0 23.2843 6.71574 30 15 30C23.2843 30 30 23.2843 30 15Z" fill="white"/>
<path d="M24.4454 11.8916C24.3273 10.7522 24.0733 9.49265 23.1384 8.83071C22.4143 8.3174 21.4625 8.29842 20.5739 8.29947C18.6956 8.29947 16.8163 8.30264 14.938 8.30369C13.1314 8.3058 11.3247 8.30686 9.51811 8.30896C8.76342 8.30896 8.02981 8.25099 7.32887 8.57774C6.72702 8.85812 6.25586 9.39146 5.97233 9.98488C5.57917 10.8102 5.49696 11.7451 5.44953 12.6579C5.36204 14.3201 5.37153 15.9866 5.47588 17.6477C5.55282 18.8599 5.74782 20.1996 6.68486 20.9722C7.51544 21.6562 8.68752 21.69 9.76475 21.691C13.184 21.6942 16.6044 21.6973 20.0248 21.6994C20.4632 21.7005 20.9207 21.6921 21.3676 21.6436C22.2467 21.5487 23.0846 21.2968 23.6496 20.6454C24.2198 19.9887 24.3663 19.0749 24.4528 18.2095C24.6636 16.1099 24.6615 13.9902 24.4454 11.8916ZM12.9606 17.9429V12.0561L18.0579 14.9989L12.9606 17.9429Z" fill="currentColor"/>
</svg>
